# xmcd
#
# Track frame offsets: 
#        150
#        14025
#        35772
#        48072
#        68600
#        82730
#        99327
#        119512
#        136315
#        150687
#        189430
#        205062
#
# Disc length: 2920 seconds
#
# Revision: 0
# Processed by: cddbd v1.5.2PL0 Copyright (c) Steve Scherf et al.
# Submitted via: ExactAudioCopyFreeDBPlugin 1.0
#
DISCID=960b660c
DTITLE=Dennis Agajanian - Empty Hearts
DYEAR=1996
DGENRE=Country
TTITLE0=Empty Hearts
TTITLE1=Amanda's Paint Mare
TTITLE2=Come On Home, It's Getting Dark Outside
TTITLE3=Billy Waited Too Long
TTITLE4=There Is A Fountain
TTITLE5=Thinking Of You - We're Marching To Zion
TTITLE6=Atlanta Colorado
TTITLE7=She Wonders
TTITLE8=Solid Rock
TTITLE9=Orange Blossom Special
TTITLE10=There Is A Road
TTITLE11=Just As I Am
EXTD=
EXTT0=
EXTT1=
EXTT2=
EXTT3=
EXTT4=
EXTT5=
EXTT6=
EXTT7=
EXTT8=
EXTT9=
EXTT10=
EXTT11=
PLAYORDER=
